<svg width="24" height="24" viewBox="0 0 24 24" fill="none" xmlns="http://www.w3.org/2000/svg">
<g clip-path="url(#clip0)">
<path d="M10.905 7.80176L4.00098 14.24L4.54618 14.7158C6.39076 16.3254 8.75599 17.2123 11.2041 17.2123H11.9912L13.2098 12.6057L11.9912 7.80176H10.905Z" fill="#C30000"/>
<path d="M13.0775 7.80176L19.9815 14.24L19.4363 14.7158C17.5917 16.3254 15.2264 17.2123 12.7784 17.2123H11.9913L11.9912 7.80176H13.0775Z" fill="#990000"/>
<path d="M9.3505 18.5581L8.89062 19.3903L9.12056 19.6203L10.3783 18.8661V18.5581L9.92396 18.1846L9.3505 18.5581Z" fill="#784132"/>
<path d="M14.6313 18.5581L15.0912 19.3903L14.8612 19.6203L13.6035 18.8661V18.5581L14.0578 18.1846L14.6313 18.5581Z" fill="#61362B"/>
<path d="M10.3793 11.8362L9.35156 18.5588H10.3793L11.9915 13.2252L12.6255 12.4111L11.9915 11.4502L10.3793 11.8362Z" fill="#525264"/>
<path d="M13.6034 11.8362L14.6312 18.5588H13.6034L11.9912 13.2252V11.4502L13.6034 11.8362Z" fill="#454553"/>
<path d="M11.9899 8.33709L11.2861 7.73013L11.356 7.49181V7.27051H11.9899L12.3739 7.89258L11.9899 8.33709Z" fill="#F9A58D"/>
<path d="M11.9902 8.33709V7.27051H12.6242V7.49181L12.7644 7.83082L11.9902 8.33709Z" fill="#DF9280"/>
<path d="M12.4778 5.94864L11.9906 7.49689C11.1356 7.49689 10.4424 6.80371 10.4424 5.94864C10.4424 5.09357 11.1356 4.40039 11.9906 4.40039L12.4778 5.94864Z" fill="#FFBDA9"/>
<path d="M13.5384 5.94864C13.5384 6.80371 12.8453 7.49689 11.9902 7.49689V4.40039C12.8453 4.40039 13.5384 5.09357 13.5384 5.94864Z" fill="#F9A58D"/>
<path d="M11.9906 8.05897C11.7213 8.05897 11.4834 7.91316 11.3567 7.69629L10.6795 7.8538C10.277 7.94742 9.99219 8.3061 9.99219 8.71929L10.3784 11.8354L11.9908 11.8356L12.7649 9.13142L11.9906 8.05897Z" fill="#B2D7F3"/>
<path d="M13.9896 8.71929C13.9896 8.3061 13.7048 7.94742 13.3023 7.85379L12.6252 7.69629C12.4985 7.91316 12.2605 8.05892 11.9912 8.05896L11.9914 11.8356H13.6034L13.9896 8.71929Z" fill="#95C7EE"/>
<path d="M11.8438 8.53215L11.6025 10.9691L11.9916 11.3044L12.1306 9.27057L11.9916 8.43555L11.8438 8.53215Z" fill="#463FC7"/>
<path d="M12.139 8.53215L12.3803 10.9691L11.9912 11.3044V9.27057V8.43555L12.139 8.53215Z" fill="#3530A3"/>
<path d="M12.0777 8.2586L11.9917 8.53267H11.844L11.6982 8.04492H11.9917L12.0777 8.2586Z" fill="#534DCA"/>
<path d="M12.1389 8.53267H11.9912V8.04492H12.2848L12.1389 8.53267Z" fill="#463FC7"/>
<path d="M11.3575 7.49121L10.9053 7.80082L11.6165 8.46033L11.9915 8.04421L11.3575 7.66114L11.3575 7.49121Z" fill="white"/>
<path d="M12.6252 7.49121L13.0748 7.8032L12.3662 8.46033L11.9912 8.04421L12.6252 7.66114V7.49121Z" fill="#EEEAE7"/>
<path d="M10.443 7.94629L8.17803 9.09518C7.90826 9.232 7.73828 9.50884 7.73828 9.81134C7.73828 10.0964 7.8894 10.3601 8.1353 10.5042L10.0933 11.6515L10.2741 10.989L8.84857 9.81355L10.443 9.25741V7.94629H10.443Z" fill="#B2D7F3"/>
<path d="M10.2736 10.9893L10.8009 11.4863C10.9059 11.5793 10.9204 11.7379 10.834 11.8485C10.7488 11.9575 10.594 11.9828 10.4785 11.9065L10.0928 11.6518L10.2736 10.9893Z" fill="#FFBDA9"/>
<path d="M13.5332 7.94629L15.7982 9.09518C16.0679 9.232 16.2379 9.50884 16.2379 9.81134C16.2379 10.0964 16.0868 10.3601 15.8409 10.5042L13.8829 11.6515L13.7021 10.989L15.1276 9.81355L13.5332 9.25741V7.94629H13.5332Z" fill="#95C7EE"/>
<path d="M13.7027 10.9893L13.1754 11.4863C13.0704 11.5793 13.0559 11.7379 13.1422 11.8485C13.2275 11.9575 13.3822 11.9828 13.4977 11.9065L13.8835 11.6518L13.7027 10.9893Z" fill="#F9A58D"/>
</g>
<defs>
<clipPath id="clip0">
<rect width="24" height="24" fill="white"/>
</clipPath>
</defs>
</svg>
